<svg xmlns="http://www.w3.org/2000/svg" xmlns:xlink="http://www.w3.org/1999/xlink" width="245" zoomAndPan="magnify" viewBox="0 0 183.75 35.25" height="47" preserveAspectRatio="xMidYMid meet" version="1.0"><defs><g/><clipPath id="db77549d46"><path d="M 4 11 L 9 11 L 9 15 L 4 15 Z M 4 11 " clip-rule="nonzero"/></clipPath><clipPath id="3f1c43f33e"><path d="M 0.324219 12.746094 L 5.808594 7.847656 L 9.726562 12.234375 L 4.246094 17.132812 Z M 0.324219 12.746094 " clip-rule="nonzero"/></clipPath><clipPath id="2f3738a104"><path d="M 0.324219 12.746094 L 5.808594 7.847656 L 9.726562 12.234375 L 4.246094 17.132812 Z M 0.324219 12.746094 " clip-rule="nonzero"/></clipPath><clipPath id="1bd6246ef8"><path d="M 0.324219 12.746094 L 5.808594 7.847656 L 9.726562 12.234375 L 4.246094 17.132812 Z M 0.324219 12.746094 " clip-rule="nonzero"/></clipPath><clipPath id="9cd8e0ea8a"><path d="M 2 8 L 8 8 L 8 16 L 2 16 Z M 2 8 " clip-rule="nonzero"/></clipPath><clipPath id="6d08176b97"><path d="M 0.324219 12.746094 L 5.808594 7.847656 L 9.726562 12.234375 L 4.246094 17.132812 Z M 0.324219 12.746094 " clip-rule="nonzero"/></clipPath><clipPath id="b0de74e7b5"><path d="M 0.324219 12.746094 L 5.808594 7.847656 L 9.726562 12.234375 L 4.246094 17.132812 Z M 0.324219 12.746094 " clip-rule="nonzero"/></clipPath><clipPath id="87c2a6eba3"><path d="M 0.324219 12.746094 L 5.808594 7.847656 L 9.726562 12.234375 L 4.246094 17.132812 Z M 0.324219 12.746094 " clip-rule="nonzero"/></clipPath><clipPath id="aff2cbdad9"><path d="M 2 13 L 5 13 L 5 15 L 2 15 Z M 2 13 " clip-rule="nonzero"/></clipPath><clipPath id="bdcd99235a"><path d="M 0.324219 12.746094 L 5.808594 7.847656 L 9.726562 12.234375 L 4.246094 17.132812 Z M 0.324219 12.746094 " clip-rule="nonzero"/></clipPath><clipPath id="5a9d180f0d"><path d="M 0.324219 12.746094 L 5.808594 7.847656 L 9.726562 12.234375 L 4.246094 17.132812 Z M 0.324219 12.746094 " clip-rule="nonzero"/></clipPath><clipPath id="30e5db2b04"><path d="M 0.324219 12.746094 L 5.808594 7.847656 L 9.726562 12.234375 L 4.246094 17.132812 Z M 0.324219 12.746094 " clip-rule="nonzero"/></clipPath><clipPath id="e0d1e745ec"><path d="M 5 9 L 7 9 L 7 12 L 5 12 Z M 5 9 " clip-rule="nonzero"/></clipPath><clipPath id="d3d8bcd1b3"><path d="M 0.324219 12.746094 L 5.808594 7.847656 L 9.726562 12.234375 L 4.246094 17.132812 Z M 0.324219 12.746094 " clip-rule="nonzero"/></clipPath><clipPath id="9c38844e7f"><path d="M 0.324219 12.746094 L 5.808594 7.847656 L 9.726562 12.234375 L 4.246094 17.132812 Z M 0.324219 12.746094 " clip-rule="nonzero"/></clipPath><clipPath id="ccecba0e3d"><path d="M 0.324219 12.746094 L 5.808594 7.847656 L 9.726562 12.234375 L 4.246094 17.132812 Z M 0.324219 12.746094 " clip-rule="nonzero"/></clipPath><clipPath id="c442d579c8"><path d="M 4 10 L 6 10 L 6 12 L 4 12 Z M 4 10 " clip-rule="nonzero"/></clipPath><clipPath id="0cec6e44b5"><path d="M 0.324219 12.746094 L 5.808594 7.847656 L 9.726562 12.234375 L 4.246094 17.132812 Z M 0.324219 12.746094 " clip-rule="nonzero"/></clipPath><clipPath id="4c6ace167f"><path d="M 0.324219 12.746094 L 5.808594 7.847656 L 9.726562 12.234375 L 4.246094 17.132812 Z M 0.324219 12.746094 " clip-rule="nonzero"/></clipPath><clipPath id="dae09cc0fc"><path d="M 0.324219 12.746094 L 5.808594 7.847656 L 9.726562 12.234375 L 4.246094 17.132812 Z M 0.324219 12.746094 " clip-rule="nonzero"/></clipPath><clipPath id="533252c95b"><path d="M 4 11 L 9 11 L 9 15 L 4 15 Z M 4 11 " clip-rule="nonzero"/></clipPath><clipPath id="4b61bc4532"><path d="M 0.324219 12.746094 L 5.808594 7.847656 L 9.726562 12.234375 L 4.246094 17.132812 Z M 0.324219 12.746094 " clip-rule="nonzero"/></clipPath><clipPath id="b8f02fab28"><path d="M 0.324219 12.746094 L 5.808594 7.847656 L 9.726562 12.234375 L 4.246094 17.132812 Z M 0.324219 12.746094 " clip-rule="nonzero"/></clipPath><clipPath id="5fd248cbdc"><path d="M 0.324219 12.746094 L 5.808594 7.847656 L 9.726562 12.234375 L 4.246094 17.132812 Z M 0.324219 12.746094 " clip-rule="nonzero"/></clipPath><clipPath id="86a0b485c8"><path d="M 2 8 L 8 8 L 8 16 L 2 16 Z M 2 8 " clip-rule="nonzero"/></clipPath><clipPath id="c25d844f6e"><path d="M 0.324219 12.746094 L 5.808594 7.847656 L 9.726562 12.234375 L 4.246094 17.132812 Z M 0.324219 12.746094 " clip-rule="nonzero"/></clipPath><clipPath id="fa08541cf9"><path d="M 0.324219 12.746094 L 5.808594 7.847656 L 9.726562 12.234375 L 4.246094 17.132812 Z M 0.324219 12.746094 " clip-rule="nonzero"/></clipPath><clipPath id="759c6adb53"><path d="M 0.324219 12.746094 L 5.808594 7.847656 L 9.726562 12.234375 L 4.246094 17.132812 Z M 0.324219 12.746094 " clip-rule="nonzero"/></clipPath><clipPath id="0ee56de7be"><path d="M 5 9 L 7 9 L 7 12 L 5 12 Z M 5 9 " clip-rule="nonzero"/></clipPath><clipPath id="cc0b5ba9ef"><path d="M 0.324219 12.746094 L 5.808594 7.847656 L 9.726562 12.234375 L 4.246094 17.132812 Z M 0.324219 12.746094 " clip-rule="nonzero"/></clipPath><clipPath id="6348ee1481"><path d="M 0.324219 12.746094 L 5.808594 7.847656 L 9.726562 12.234375 L 4.246094 17.132812 Z M 0.324219 12.746094 " clip-rule="nonzero"/></clipPath><clipPath id="16322fc630"><path d="M 0.324219 12.746094 L 5.808594 7.847656 L 9.726562 12.234375 L 4.246094 17.132812 Z M 0.324219 12.746094 " clip-rule="nonzero"/></clipPath><clipPath id="81d310aa26"><path d="M 4 10 L 6 10 L 6 12 L 4 12 Z M 4 10 " clip-rule="nonzero"/></clipPath><clipPath id="266d8cf55f"><path d="M 0.324219 12.746094 L 5.808594 7.847656 L 9.726562 12.234375 L 4.246094 17.132812 Z M 0.324219 12.746094 " clip-rule="nonzero"/></clipPath><clipPath id="7dff189147"><path d="M 0.324219 12.746094 L 5.808594 7.847656 L 9.726562 12.234375 L 4.246094 17.132812 Z M 0.324219 12.746094 " clip-rule="nonzero"/></clipPath><clipPath id="d5eb4a4570"><path d="M 0.324219 12.746094 L 5.808594 7.847656 L 9.726562 12.234375 L 4.246094 17.132812 Z M 0.324219 12.746094 " clip-rule="nonzero"/></clipPath><clipPath id="7fe63f1b6d"><path d="M 2 12 L 5 12 L 5 13 L 2 13 Z M 2 12 " clip-rule="nonzero"/></clipPath><clipPath id="f17b543bc9"><path d="M 0.324219 12.746094 L 5.808594 7.847656 L 9.726562 12.234375 L 4.246094 17.132812 Z M 0.324219 12.746094 " clip-rule="nonzero"/></clipPath><clipPath id="b04ffbb0ce"><path d="M 0.324219 12.746094 L 5.808594 7.847656 L 9.726562 12.234375 L 4.246094 17.132812 Z M 0.324219 12.746094 " clip-rule="nonzero"/></clipPath><clipPath id="2d9ec396ff"><path d="M 0.324219 12.746094 L 5.808594 7.847656 L 9.726562 12.234375 L 4.246094 17.132812 Z M 0.324219 12.746094 " clip-rule="nonzero"/></clipPath><clipPath id="6bcdec8c8e"><path d="M 2 13 L 5 13 L 5 15 L 2 15 Z M 2 13 " clip-rule="nonzero"/></clipPath><clipPath id="a70c6ccd16"><path d="M 0.324219 12.746094 L 5.808594 7.847656 L 9.726562 12.234375 L 4.246094 17.132812 Z M 0.324219 12.746094 " clip-rule="nonzero"/></clipPath><clipPath id="0158449110"><path d="M 0.324219 12.746094 L 5.808594 7.847656 L 9.726562 12.234375 L 4.246094 17.132812 Z M 0.324219 12.746094 " clip-rule="nonzero"/></clipPath><clipPath id="8628add31e"><path d="M 0.324219 12.746094 L 5.808594 7.847656 L 9.726562 12.234375 L 4.246094 17.132812 Z M 0.324219 12.746094 " clip-rule="nonzero"/></clipPath><clipPath id="b921d3b5bb"><path d="M 4 11 L 8 11 L 8 15 L 4 15 Z M 4 11 " clip-rule="nonzero"/></clipPath><clipPath id="e5ec139e4c"><path d="M 0.324219 12.746094 L 5.808594 7.847656 L 9.726562 12.234375 L 4.246094 17.132812 Z M 0.324219 12.746094 " clip-rule="nonzero"/></clipPath><clipPath id="044d7c6562"><path d="M 0.324219 12.746094 L 5.808594 7.847656 L 9.726562 12.234375 L 4.246094 17.132812 Z M 0.324219 12.746094 " clip-rule="nonzero"/></clipPath><clipPath id="05426cca44"><path d="M 0.324219 12.746094 L 5.808594 7.847656 L 9.726562 12.234375 L 4.246094 17.132812 Z M 0.324219 12.746094 " clip-rule="nonzero"/></clipPath><clipPath id="b0cc775686"><path d="M 4 14 L 5 14 L 5 15 L 4 15 Z M 4 14 " clip-rule="nonzero"/></clipPath><clipPath id="616537ec00"><path d="M 0.324219 12.746094 L 5.808594 7.847656 L 9.726562 12.234375 L 4.246094 17.132812 Z M 0.324219 12.746094 " clip-rule="nonzero"/></clipPath><clipPath id="7040a33c99"><path d="M 0.324219 12.746094 L 5.808594 7.847656 L 9.726562 12.234375 L 4.246094 17.132812 Z M 0.324219 12.746094 " clip-rule="nonzero"/></clipPath><clipPath id="ff4128b92e"><path d="M 0.324219 12.746094 L 5.808594 7.847656 L 9.726562 12.234375 L 4.246094 17.132812 Z M 0.324219 12.746094 " clip-rule="nonzero"/></clipPath><clipPath id="e9e5fdcb01"><path d="M 5 11 L 9 11 L 9 15 L 5 15 Z M 5 11 " clip-rule="nonzero"/></clipPath><clipPath id="27d31b3ece"><path d="M 0.324219 12.746094 L 5.808594 7.847656 L 9.726562 12.234375 L 4.246094 17.132812 Z M 0.324219 12.746094 " clip-rule="nonzero"/></clipPath><clipPath id="75ec365725"><path d="M 0.324219 12.746094 L 5.808594 7.847656 L 9.726562 12.234375 L 4.246094 17.132812 Z M 0.324219 12.746094 " clip-rule="nonzero"/></clipPath><clipPath id="b420c2abf6"><path d="M 0.324219 12.746094 L 5.808594 7.847656 L 9.726562 12.234375 L 4.246094 17.132812 Z M 0.324219 12.746094 " clip-rule="nonzero"/></clipPath><clipPath id="8c84bf3c38"><path d="M 7 11 L 9 11 L 9 12 L 7 12 Z M 7 11 " clip-rule="nonzero"/></clipPath><clipPath id="d09b334a42"><path d="M 0.324219 12.746094 L 5.808594 7.847656 L 9.726562 12.234375 L 4.246094 17.132812 Z M 0.324219 12.746094 " clip-rule="nonzero"/></clipPath><clipPath id="671d4277fe"><path d="M 0.324219 12.746094 L 5.808594 7.847656 L 9.726562 12.234375 L 4.246094 17.132812 Z M 0.324219 12.746094 " clip-rule="nonzero"/></clipPath><clipPath id="51d372c4ec"><path d="M 0.324219 12.746094 L 5.808594 7.847656 L 9.726562 12.234375 L 4.246094 17.132812 Z M 0.324219 12.746094 " clip-rule="nonzero"/></clipPath><clipPath id="b8a3c3a175"><path d="M 2 11 L 5 11 L 5 14 L 2 14 Z M 2 11 " clip-rule="nonzero"/></clipPath><clipPath id="ce430df87a"><path d="M 0.324219 12.746094 L 5.808594 7.847656 L 9.726562 12.234375 L 4.246094 17.132812 Z M 0.324219 12.746094 " clip-rule="nonzero"/></clipPath><clipPath id="d7508c58fc"><path d="M 0.324219 12.746094 L 5.808594 7.847656 L 9.726562 12.234375 L 4.246094 17.132812 Z M 0.324219 12.746094 " clip-rule="nonzero"/></clipPath><clipPath id="f516af3151"><path d="M 0.324219 12.746094 L 5.808594 7.847656 L 9.726562 12.234375 L 4.246094 17.132812 Z M 0.324219 12.746094 " clip-rule="nonzero"/></clipPath><clipPath id="16154ce740"><path d="M 4 11 L 8 11 L 8 15 L 4 15 Z M 4 11 " clip-rule="nonzero"/></clipPath><clipPath id="afe9d65368"><path d="M 0.324219 12.746094 L 5.808594 7.847656 L 9.726562 12.234375 L 4.246094 17.132812 Z M 0.324219 12.746094 " clip-rule="nonzero"/></clipPath><clipPath id="4da8907834"><path d="M 0.324219 12.746094 L 5.808594 7.847656 L 9.726562 12.234375 L 4.246094 17.132812 Z M 0.324219 12.746094 " clip-rule="nonzero"/></clipPath><clipPath id="a31dcecd92"><path d="M 0.324219 12.746094 L 5.808594 7.847656 L 9.726562 12.234375 L 4.246094 17.132812 Z M 0.324219 12.746094 " clip-rule="nonzero"/></clipPath><clipPath id="0105ba7111"><path d="M 4 11 L 9 11 L 9 15 L 4 15 Z M 4 11 " clip-rule="nonzero"/></clipPath><clipPath id="5f441ca5df"><path d="M 0.324219 12.746094 L 5.808594 7.847656 L 9.726562 12.234375 L 4.246094 17.132812 Z M 0.324219 12.746094 " clip-rule="nonzero"/></clipPath><clipPath id="19ea429fa8"><path d="M 0.324219 12.746094 L 5.808594 7.847656 L 9.726562 12.234375 L 4.246094 17.132812 Z M 0.324219 12.746094 " clip-rule="nonzero"/></clipPath><clipPath id="b4b64758d9"><path d="M 0.324219 12.746094 L 5.808594 7.847656 L 9.726562 12.234375 L 4.246094 17.132812 Z M 0.324219 12.746094 " clip-rule="nonzero"/></clipPath><clipPath id="b72b0aa309"><path d="M 40.582031 15.410156 L 44.320312 15.410156 L 44.320312 18.402344 L 40.582031 18.402344 Z M 40.582031 15.410156 " clip-rule="nonzero"/></clipPath><clipPath id="416c25fc3c"><path d="M 34.304688 14.59375 L 39.910156 14.59375 L 39.910156 19.828125 L 34.304688 19.828125 Z M 34.304688 14.59375 " clip-rule="nonzero"/></clipPath><clipPath id="82c4800df0"><path d="M 29.933594 15.410156 L 33.671875 15.410156 L 33.671875 18.402344 L 29.933594 18.402344 Z M 29.933594 15.410156 " clip-rule="nonzero"/></clipPath><clipPath id="ae74357233"><path d="M 16.59375 20.222656 L 32.039062 20.222656 L 32.039062 23.164062 L 16.59375 23.164062 Z M 16.59375 20.222656 " clip-rule="nonzero"/></clipPath><clipPath id="4ec0b9280d"><path d="M 42.757812 19.96875 L 58.199219 19.96875 L 58.199219 22.910156 L 42.757812 22.910156 Z M 42.757812 19.96875 " clip-rule="nonzero"/></clipPath></defs><g clip-path="url(#db77549d46)"><g clip-path="url(#3f1c43f33e)"><g clip-path="url(#2f3738a104)"><g clip-path="url(#1bd6246ef8)"><path fill="#dfdfdd" d="M 8.027344 12.433594 C 7.007812 14.625 4.777344 15.300781 5.007812 14.597656 C 5.453125 13.207031 6.507812 11.59375 7.875 11.921875 C 8.054688 11.972656 8.222656 12.011719 8.027344 12.433594 Z M 8.027344 12.433594 " fill-opacity="1" fill-rule="nonzero"/></g></g></g></g><g clip-path="url(#9cd8e0ea8a)"><g clip-path="url(#6d08176b97)"><g clip-path="url(#b0de74e7b5)"><g clip-path="url(#87c2a6eba3)"><path fill="#f3f3f1" d="M 6.839844 11.148438 C 7.214844 10.449219 7.03125 9.390625 6.359375 8.980469 C 5.5 8.46875 5.019531 9.414062 4.636719 9.734375 C 3.914062 10.34375 4.164062 9.699219 3.058594 11.339844 C 2.734375 11.816406 2.535156 12.109375 2.34375 12.816406 C 2.101562 13.664062 2.214844 13.980469 2.484375 14.582031 C 2.875 15.492188 3.425781 14.90625 4.414062 14.210938 " fill-opacity="1" fill-rule="nonzero"/></g></g></g></g><g clip-path="url(#aff2cbdad9)"><g clip-path="url(#bdcd99235a)"><g clip-path="url(#5a9d180f0d)"><g clip-path="url(#30e5db2b04)"><path fill="#000000" d="M 4.230469 13.898438 C 4.0625 13.820312 3.867188 13.878906 3.703125 13.972656 C 3.535156 14.0625 3.382812 14.195312 3.199219 14.265625 C 2.753906 14.457031 2.511719 14.078125 2.378906 14.140625 C 2.191406 14.214844 2.71875 14.542969 2.84375 14.601562 C 3.386719 14.84375 3.738281 14.035156 4.230469 13.898438 Z M 4.230469 13.898438 " fill-opacity="0.098" fill-rule="nonzero"/></g></g></g></g><g clip-path="url(#e0d1e745ec)"><g clip-path="url(#d3d8bcd1b3)"><g clip-path="url(#9c38844e7f)"><g clip-path="url(#ccecba0e3d)"><path fill="#000000" d="M 5.886719 10.640625 C 4.464844 9.222656 6.292969 8.390625 6.398438 9.558594 C 6.433594 9.964844 6.234375 10.449219 6.847656 11.136719 C 6.421875 11.367188 6.164062 10.910156 5.886719 10.640625 Z M 5.886719 10.640625 " fill-opacity="0.098" fill-rule="nonzero"/></g></g></g></g><g clip-path="url(#c442d579c8)"><g clip-path="url(#0cec6e44b5)"><g clip-path="url(#4c6ace167f)"><g clip-path="url(#dae09cc0fc)"><path fill="#000000" d="M 5.394531 10.757812 C 5.109375 9.8125 3.644531 10.085938 4.210938 10.613281 C 4.558594 10.933594 4.902344 11.257812 5.246094 11.578125 C 5.3125 11.632812 5.453125 11.832031 5.554688 11.816406 C 5.484375 11.652344 5.464844 11.476562 5.457031 11.296875 C 5.449219 11.246094 5.375 10.777344 5.394531 10.757812 Z M 5.394531 10.757812 " fill-opacity="0.098" fill-rule="nonzero"/></g></g></g></g><g clip-path="url(#533252c95b)"><g clip-path="url(#4b61bc4532)"><g clip-path="url(#b8f02fab28)"><g clip-path="url(#5fd248cbdc)"><path fill="#f3f3f1" d="M 8.042969 11.980469 C 7.191406 12.1875 5.792969 13.496094 5.015625 14.839844 C 4.90625 14.632812 4.746094 14.257812 4.40625 14.199219 C 4.324219 14.214844 4.238281 14.121094 4.234375 14.03125 C 4.183594 13.480469 6.15625 11.222656 6.859375 11.148438 C 7.03125 11.128906 7.238281 11.230469 7.277344 11.402344 C 7.519531 11.609375 7.78125 11.796875 8.042969 11.980469 Z M 8.042969 11.980469 " fill-opacity="1" fill-rule="nonzero"/></g></g></g></g><g clip-path="url(#86a0b485c8)"><g clip-path="url(#c25d844f6e)"><g clip-path="url(#fa08541cf9)"><g clip-path="url(#759c6adb53)"><path fill="#000000" d="M 4.011719 14.511719 C 3.039062 15.230469 2.726562 15.433594 2.269531 14.238281 C 2.132812 13.847656 2.109375 13.542969 2.191406 13.140625 C 2.277344 12.761719 2.390625 12.375 2.574219 12 C 2.746094 11.617188 3 11.273438 3.253906 10.914062 C 3.410156 10.679688 3.671875 10.332031 3.875 10.148438 C 3.960938 10.074219 4.066406 10.019531 4.160156 9.972656 C 4.980469 9.582031 5.445312 8.214844 6.5 9.007812 C 6.828125 9.269531 7.015625 9.671875 7.0625 10.109375 C 7.128906 10.699219 6.875 11.191406 6.835938 11.167969 C 6.835938 11.167969 7.257812 10.242188 6.71875 9.421875 C 6.632812 9.308594 6.539062 9.203125 6.421875 9.113281 C 5.441406 8.40625 5.074219 9.6875 4.210938 10.117188 C 4.117188 10.164062 4.035156 10.199219 3.960938 10.265625 C 3.882812 10.332031 3.820312 10.410156 3.753906 10.488281 C 2.707031 11.765625 2.464844 12.460938 2.3125 13.167969 C 2.28125 13.347656 2.25 13.527344 2.269531 13.703125 C 2.292969 14.027344 2.539062 14.796875 2.816406 14.953125 C 3.019531 15.054688 3.261719 14.9375 3.492188 14.789062 C 3.679688 14.65625 3.839844 14.554688 3.976562 14.46875 C 4.511719 14.105469 4.5625 14.097656 4.011719 14.511719 Z M 4.011719 14.511719 " fill-opacity="1" fill-rule="nonzero"/></g></g></g></g><g clip-path="url(#0ee56de7be)"><g clip-path="url(#cc0b5ba9ef)"><g clip-path="url(#6348ee1481)"><g clip-path="url(#16322fc630)"><path fill="#000000" d="M 6.496094 11.300781 C 6.464844 11.328125 6.144531 10.929688 5.988281 10.34375 C 5.820312 9.75 5.890625 9.246094 5.929688 9.25 C 5.96875 9.25 5.980469 9.738281 6.140625 10.300781 C 6.277344 10.867188 6.527344 11.273438 6.496094 11.300781 Z M 6.496094 11.300781 " fill-opacity="1" fill-rule="nonzero"/></g></g></g></g><g clip-path="url(#81d310aa26)"><g clip-path="url(#266d8cf55f)"><g clip-path="url(#7dff189147)"><g clip-path="url(#d5eb4a4570)"><path fill="#000000" d="M 5.6875 11.964844 C 5.679688 11.976562 5.570312 11.917969 5.4375 11.789062 C 4.9375 11.339844 4.882812 10.71875 4.765625 10.5 C 4.691406 10.355469 4.550781 10.367188 4.550781 10.328125 C 4.554688 10.308594 4.65625 10.292969 4.734375 10.335938 C 4.957031 10.480469 4.972656 10.753906 5.132812 11.105469 C 5.367188 11.625 5.730469 11.925781 5.6875 11.964844 Z M 5.6875 11.964844 " fill-opacity="1" fill-rule="nonzero"/></g></g></g></g><g clip-path="url(#7fe63f1b6d)"><g clip-path="url(#f17b543bc9)"><g clip-path="url(#b04ffbb0ce)"><g clip-path="url(#2d9ec396ff)"><path fill="#000000" d="M 4.800781 12.949219 C 4.78125 12.96875 4.695312 12.890625 4.523438 12.851562 C 4.445312 12.828125 4.324219 12.820312 4.203125 12.796875 C 3.863281 12.738281 3.691406 12.566406 3.480469 12.414062 C 3.382812 12.347656 3.292969 12.292969 3.214844 12.265625 C 3.046875 12.207031 2.933594 12.230469 2.925781 12.199219 C 2.917969 12.191406 3.042969 12.117188 3.242188 12.167969 C 3.492188 12.210938 3.671875 12.394531 3.898438 12.515625 C 4.121094 12.660156 4.382812 12.671875 4.5625 12.742188 C 4.738281 12.832031 4.8125 12.9375 4.800781 12.949219 Z M 4.800781 12.949219 " fill-opacity="1" fill-rule="nonzero"/></g></g></g></g><g clip-path="url(#6bcdec8c8e)"><g clip-path="url(#a70c6ccd16)"><g clip-path="url(#0158449110)"><g clip-path="url(#8628add31e)"><path fill="#000000" d="M 4.230469 13.878906 C 4.21875 13.90625 4.113281 13.832031 3.949219 13.902344 C 3.863281 13.9375 3.769531 13.984375 3.664062 14.058594 C 3.496094 14.191406 3.230469 14.429688 2.90625 14.414062 C 2.757812 14.394531 2.6875 14.339844 2.582031 14.242188 C 2.515625 14.191406 2.457031 14.167969 2.40625 14.152344 C 2.367188 14.152344 2.335938 14.160156 2.324219 14.148438 C 2.316406 14.140625 2.347656 14.109375 2.398438 14.101562 C 2.667969 14.035156 2.742188 14.464844 3.265625 14.167969 C 3.378906 14.105469 3.496094 14.019531 3.601562 13.945312 C 3.738281 13.863281 4.027344 13.734375 4.164062 13.824219 C 4.222656 13.847656 4.242188 13.867188 4.230469 13.878906 Z M 4.230469 13.878906 " fill-opacity="1" fill-rule="nonzero"/></g></g></g></g><g clip-path="url(#b921d3b5bb)"><g clip-path="url(#e5ec139e4c)"><g clip-path="url(#044d7c6562)"><g clip-path="url(#05426cca44)"><path fill="#000000" d="M 7.246094 11.414062 C 7.238281 11.421875 7.222656 11.339844 7.136719 11.265625 C 6.535156 10.789062 4.75 12.996094 4.386719 13.644531 C 4.285156 13.832031 4.203125 13.996094 4.269531 14.09375 C 4.324219 14.195312 4.394531 14.191406 4.394531 14.191406 C 4.394531 14.191406 4.375 14.210938 4.34375 14.199219 C 3.4375 14.128906 6.433594 10.460938 7.179688 11.226562 C 7.273438 11.332031 7.269531 11.414062 7.246094 11.414062 Z M 7.246094 11.414062 " fill-opacity="1" fill-rule="nonzero"/></g></g></g></g><g clip-path="url(#b0cc775686)"><g clip-path="url(#616537ec00)"><g clip-path="url(#7040a33c99)"><g clip-path="url(#ff4128b92e)"><path fill="#000000" d="M 4.324219 14.195312 C 4.324219 14.175781 4.386719 14.160156 4.476562 14.175781 C 4.707031 14.21875 4.886719 14.457031 4.972656 14.6875 C 5.007812 14.769531 5.003906 14.828125 4.996094 14.839844 C 4.953125 14.855469 4.84375 14.667969 4.683594 14.46875 C 4.597656 14.371094 4.519531 14.308594 4.441406 14.261719 C 4.382812 14.238281 4.324219 14.214844 4.324219 14.195312 Z M 4.324219 14.195312 " fill-opacity="1" fill-rule="nonzero"/></g></g></g></g><g clip-path="url(#e9e5fdcb01)"><g clip-path="url(#27d31b3ece)"><g clip-path="url(#75ec365725)"><g clip-path="url(#b420c2abf6)"><path fill="#000000" d="M 5.003906 14.847656 C 4.996094 14.839844 5.089844 14.621094 5.300781 14.300781 C 6.410156 12.582031 8.03125 11.820312 8.042969 12 C 8.042969 12.019531 7.816406 12.089844 7.5 12.296875 C 6.144531 13.183594 5.003906 14.847656 5.003906 14.847656 Z M 5.003906 14.847656 " fill-opacity="1" fill-rule="nonzero"/></g></g></g></g><g clip-path="url(#8c84bf3c38)"><g clip-path="url(#d09b334a42)"><g clip-path="url(#671d4277fe)"><g clip-path="url(#51d372c4ec)"><path fill="#000000" d="M 8.042969 11.980469 C 7.976562 12.058594 7.203125 11.492188 7.257812 11.402344 C 7.3125 11.335938 8.109375 11.902344 8.042969 11.980469 Z M 8.042969 11.980469 " fill-opacity="1" fill-rule="nonzero"/></g></g></g></g><g clip-path="url(#b8a3c3a175)"><g clip-path="url(#ce430df87a)"><g clip-path="url(#d7508c58fc)"><g clip-path="url(#f516af3151)"><path fill="#000000" d="M 4.566406 13.007812 C 3.542969 13.214844 3.417969 12.277344 2.789062 12.265625 C 3.035156 12.085938 3.316406 11.929688 3.628906 11.957031 C 3.867188 11.988281 4.09375 12.132812 4.230469 12.332031 C 4.445312 12.65625 4.390625 12.574219 4.636719 12.65625 C 4.855469 12.730469 4.84375 12.949219 4.566406 13.007812 Z M 4.566406 13.007812 " fill-opacity="0.098" fill-rule="nonzero"/></g></g></g></g><g clip-path="url(#16154ce740)"><g clip-path="url(#afe9d65368)"><g clip-path="url(#4da8907834)"><g clip-path="url(#a31dcecd92)"><path fill="#000000" d="M 7.269531 11.375 C 7.277344 11.402344 7.046875 11.421875 6.71875 11.617188 C 5.664062 12.195312 4.363281 14.199219 4.363281 14.199219 C 4.355469 14.1875 4.4375 13.980469 4.640625 13.648438 C 5.121094 12.835938 5.957031 11.859375 6.675781 11.523438 C 7.019531 11.351562 7.28125 11.363281 7.269531 11.375 Z M 7.269531 11.375 " fill-opacity="1" fill-rule="nonzero"/></g></g></g></g><g clip-path="url(#0105ba7111)"><g clip-path="url(#5f441ca5df)"><g clip-path="url(#19ea429fa8)"><g clip-path="url(#b4b64758d9)"><path fill="#000000" d="M 4.976562 14.796875 C 4.976562 14.796875 5.121094 14.894531 5.347656 14.847656 C 6.847656 14.421875 8.097656 12.601562 8.105469 12.117188 C 8.101562 12.003906 8.042969 11.960938 8.054688 11.949219 C 8.066406 11.941406 8.152344 11.996094 8.15625 12.109375 C 8.230469 12.597656 6.988281 14.621094 5.363281 14.929688 C 5.273438 14.933594 5.191406 14.929688 5.132812 14.90625 C 5.003906 14.871094 4.976562 14.796875 4.976562 14.796875 Z M 4.976562 14.796875 " fill-opacity="1" fill-rule="nonzero"/></g></g></g></g><g fill="#ffffff" fill-opacity="1"><g transform="translate(9.098624, 20.70344)"><g><path d="M 3.671875 -2.683594 L 5.042969 -3.6875 L 1.96875 -4.765625 C 2.078125 -4.902344 2.160156 -5.035156 2.222656 -5.167969 C 2.570312 -5.878906 2.390625 -6.601562 1.878906 -7.300781 C 1.394531 -7.964844 0.78125 -8.332031 0.0234375 -8.222656 C -0.371094 -8.160156 -0.8125 -7.972656 -1.523438 -7.453125 L -3.359375 -6.113281 L 0.722656 -0.527344 L 1.882812 -1.375 L 0.375 -3.433594 L 0.867188 -3.792969 Z M -1.492188 -5.988281 L -0.976562 -6.363281 C -0.527344 -6.691406 -0.257812 -6.847656 0.0195312 -6.84375 C 0.28125 -6.832031 0.535156 -6.6875 0.765625 -6.375 C 1.003906 -6.046875 1.070312 -5.753906 0.976562 -5.484375 C 0.894531 -5.242188 0.664062 -5.042969 0.222656 -4.722656 L -0.289062 -4.347656 Z M -1.492188 -5.988281 "/></g></g></g><g fill="#ffffff" fill-opacity="1"><g transform="translate(14.574284, 16.759726)"><g><path d="M 1.605469 -7.3125 L 1 -8.421875 L -2.523438 -6.5 L 0.785156 -0.429688 L 4.308594 -2.347656 L 3.703125 -3.460938 L 1.449219 -2.234375 L 0.699219 -3.609375 L 2.695312 -4.695312 L 2.097656 -5.792969 L 0.101562 -4.703125 L -0.648438 -6.082031 Z M 1.605469 -7.3125 "/></g></g></g><g fill="#ffffff" fill-opacity="1"><g transform="translate(19.615612, 14.006745)"><g><path d="M 3.015625 -1.066406 C 4.421875 -1.609375 5.152344 -2.699219 4.675781 -3.925781 C 4.167969 -5.234375 2.878906 -5.160156 1.785156 -5.074219 C 0.96875 -5.011719 0.277344 -4.917969 0.0703125 -5.457031 C -0.125 -5.953125 0.25 -6.359375 0.789062 -6.566406 C 1.394531 -6.800781 1.9375 -6.6875 2.378906 -6.144531 L 3.476562 -6.914062 C 2.738281 -8.050781 1.417969 -8.070312 0.285156 -7.628906 C -1.011719 -7.128906 -1.730469 -6.070312 -1.269531 -4.882812 C -0.804688 -3.675781 0.34375 -3.726562 1.402344 -3.796875 C 2.28125 -3.859375 3.070312 -3.949219 3.320312 -3.316406 C 3.527344 -2.796875 3.1875 -2.386719 2.613281 -2.167969 C 1.941406 -1.90625 1.308594 -2.054688 0.832031 -2.726562 L -0.375 -1.90625 C 0.289062 -0.773438 1.628906 -0.527344 3.015625 -1.066406 Z M 3.015625 -1.066406 "/></g></g></g><g fill="#ffffff" fill-opacity="1"><g transform="translate(25.666834, 11.717654)"><g><path d="M 3.089844 -7.898438 L -1.484375 -6.757812 L -1.179688 -5.53125 L 0.421875 -5.929688 L 1.789062 -0.445312 L 3.167969 -0.789062 L 1.800781 -6.273438 L 3.394531 -6.671875 Z M 3.089844 -7.898438 "/></g></g></g><g fill="#ffffff" fill-opacity="1"><g transform="translate(30.836377, 10.376995)"><g><path d="M 5.492188 -0.601562 L 6.953125 -0.761719 L 3.667969 -7.359375 L 1.921875 -7.167969 L 0.144531 -0.015625 L 1.601562 -0.175781 L 1.949219 -1.648438 L 4.835938 -1.964844 Z M 2.234375 -2.886719 L 2.941406 -5.917969 L 4.285156 -3.113281 Z M 2.234375 -2.886719 "/></g></g></g><g fill="#ffffff" fill-opacity="1"><g transform="translate(38.119755, 9.60049)"><g><path d="M 3.449219 0.246094 C 4.96875 0.3125 6.195312 -0.410156 6.269531 -2.148438 L 6.464844 -6.640625 L 5.03125 -6.703125 L 4.84375 -2.410156 C 4.796875 -1.363281 4.214844 -0.988281 3.503906 -1.019531 C 2.796875 -1.050781 2.253906 -1.46875 2.300781 -2.519531 L 2.488281 -6.8125 L 1.054688 -6.875 L 0.855469 -2.386719 C 0.78125 -0.644531 1.933594 0.179688 3.449219 0.246094 Z M 3.449219 0.246094 "/></g></g></g><g fill="#ffffff" fill-opacity="1"><g transform="translate(45.237338, 9.941646)"><g><path d="M 4.464844 0.859375 L 6.132812 1.183594 L 4.832031 -1.804688 C 5.003906 -1.820312 5.15625 -1.847656 5.296875 -1.894531 C 6.054688 -2.125 6.460938 -2.746094 6.625 -3.597656 C 6.78125 -4.40625 6.632812 -5.101562 6.039062 -5.582031 C 5.71875 -5.828125 5.285156 -6.023438 4.421875 -6.191406 L 2.1875 -6.621094 L 0.878906 0.167969 L 2.289062 0.441406 L 2.773438 -2.0625 L 3.367188 -1.949219 Z M 3.371094 -5.171875 L 3.996094 -5.050781 C 4.539062 -4.945312 4.839844 -4.851562 5.023438 -4.648438 C 5.195312 -4.449219 5.261719 -4.164062 5.1875 -3.78125 C 5.113281 -3.382812 4.941406 -3.136719 4.683594 -3.023438 C 4.445312 -2.914062 4.144531 -2.949219 3.609375 -3.050781 L 2.984375 -3.171875 Z M 3.371094 -5.171875 "/></g></g></g><g fill="#ffffff" fill-opacity="1"><g transform="translate(51.824326, 11.201715)"><g><path d="M 5.207031 1.835938 L 6.59375 2.328125 L 6.496094 -5.042969 L 4.839844 -5.628906 L 0.136719 0.046875 L 1.519531 0.535156 L 2.46875 -0.640625 L 5.210938 0.324219 Z M 3.265625 -1.632812 L 5.21875 -4.058594 L 5.210938 -0.949219 Z M 3.265625 -1.632812 "/></g></g></g><g fill="#ffffff" fill-opacity="1"><g transform="translate(58.715712, 13.612724)"><g><path d="M 8.253906 -3.355469 L 5.886719 0.953125 L 5.554688 -4.839844 L 4.113281 -5.628906 L 0.785156 0.429688 L 2.039062 1.121094 L 4.417969 -3.214844 L 4.722656 2.59375 L 6.179688 3.394531 L 9.507812 -2.667969 Z M 8.253906 -3.355469 "/></g></g></g><g fill="#ffffff" fill-opacity="1"><g transform="translate(65.805923, 17.641683)"><g><path d="M 8.078125 -2.574219 L 4.3125 -5.410156 L 3.550781 -4.402344 L 4.871094 -3.40625 L 1.472656 1.109375 L 2.609375 1.964844 L 6.007812 -2.554688 L 7.320312 -1.566406 Z M 8.078125 -2.574219 "/></g></g></g><g clip-path="url(#b72b0aa309)"><path fill="#ff5757" d="M 42.449219 15.410156 L 42.890625 16.554688 L 44.316406 16.554688 L 43.164062 17.257812 L 43.605469 18.402344 L 42.449219 17.695312 L 41.292969 18.402344 L 41.734375 17.257812 L 40.582031 16.554688 L 42.007812 16.554688 L 42.449219 15.410156 " fill-opacity="1" fill-rule="nonzero"/></g><g clip-path="url(#416c25fc3c)"><path fill="#ff5757" d="M 37.109375 14.59375 L 37.769531 16.59375 L 39.910156 16.59375 L 38.179688 17.828125 L 38.839844 19.828125 L 37.109375 18.59375 L 35.375 19.828125 L 36.039062 17.828125 L 34.304688 16.59375 L 36.445312 16.59375 L 37.109375 14.59375 " fill-opacity="1" fill-rule="nonzero"/></g><g clip-path="url(#82c4800df0)"><path fill="#ff5757" d="M 31.804688 15.410156 L 32.246094 16.554688 L 33.671875 16.554688 L 32.515625 17.257812 L 32.957031 18.402344 L 31.804688 17.695312 L 30.648438 18.402344 L 31.089844 17.257812 L 29.933594 16.554688 L 31.363281 16.554688 L 31.804688 15.410156 " fill-opacity="1" fill-rule="nonzero"/></g><g clip-path="url(#ae74357233)"><path fill="#ff5757" d="M 23.015625 21.191406 C 22.769531 21.191406 22.523438 21.136719 22.304688 21.035156 L 21.648438 20.542969 C 21.363281 20.332031 21 20.222656 20.632812 20.234375 L 16.78125 20.546875 C 16.683594 20.550781 16.605469 20.621094 16.605469 20.707031 C 16.605469 20.796875 16.683594 20.863281 16.78125 20.859375 L 20.203125 20.707031 C 20.339844 20.703125 20.449219 20.792969 20.449219 20.90625 C 20.449219 21.019531 20.339844 21.113281 20.203125 21.117188 L 16.78125 21.207031 C 16.683594 21.207031 16.605469 21.277344 16.605469 21.363281 C 16.605469 21.449219 16.683594 21.519531 16.78125 21.519531 L 20.203125 21.488281 C 20.339844 21.484375 20.449219 21.578125 20.449219 21.691406 C 20.449219 21.804688 20.339844 21.898438 20.203125 21.894531 L 16.78125 21.863281 C 16.683594 21.863281 16.605469 21.933594 16.605469 22.019531 C 16.605469 22.105469 16.683594 22.175781 16.78125 22.179688 L 20.203125 22.269531 C 20.339844 22.269531 20.449219 22.363281 20.449219 22.476562 C 20.449219 22.59375 20.339844 22.679688 20.203125 22.675781 L 16.78125 22.523438 C 16.683594 22.523438 16.605469 22.589844 16.605469 22.675781 C 16.605469 22.761719 16.683594 22.835938 16.78125 22.839844 L 20.632812 23.152344 C 21 23.164062 21.359375 23.054688 21.648438 22.839844 L 22.304688 22.351562 C 22.523438 22.246094 22.769531 22.191406 23.015625 22.191406 C 23.015625 22.191406 26.691406 21.964844 30.242188 22.394531 C 30.242188 22.394531 32.027344 22.726562 32.027344 21.695312 C 32.027344 20.660156 30.242188 20.992188 30.242188 20.992188 C 26.691406 21.421875 23.015625 21.191406 23.015625 21.191406 Z M 23.015625 21.191406 " fill-opacity="1" fill-rule="nonzero"/></g><g clip-path="url(#4ec0b9280d)"><path fill="#ff5757" d="M 51.777344 21.941406 C 52.027344 21.941406 52.269531 21.996094 52.488281 22.097656 L 53.148438 22.589844 C 53.429688 22.800781 53.792969 22.910156 54.160156 22.898438 L 58.011719 22.585938 C 58.109375 22.582031 58.1875 22.507812 58.1875 22.421875 C 58.1875 22.335938 58.109375 22.269531 58.011719 22.273438 L 54.589844 22.425781 C 54.453125 22.429688 54.34375 22.339844 54.34375 22.226562 C 54.34375 22.113281 54.453125 22.019531 54.589844 22.015625 L 58.011719 21.925781 C 58.109375 21.925781 58.1875 21.855469 58.1875 21.769531 C 58.1875 21.683594 58.109375 21.613281 58.011719 21.613281 L 54.589844 21.644531 C 54.453125 21.644531 54.34375 21.554688 54.34375 21.441406 C 54.34375 21.328125 54.453125 21.234375 54.589844 21.238281 L 58.011719 21.269531 C 58.109375 21.265625 58.1875 21.199219 58.1875 21.113281 C 58.1875 21.027344 58.109375 20.953125 58.011719 20.953125 L 54.589844 20.863281 C 54.453125 20.859375 54.34375 20.769531 54.34375 20.652344 C 54.34375 20.539062 54.453125 20.449219 54.589844 20.453125 L 58.011719 20.605469 C 58.109375 20.609375 58.1875 20.542969 58.1875 20.457031 C 58.1875 20.371094 58.109375 20.296875 58.011719 20.292969 L 54.160156 19.980469 C 53.792969 19.96875 53.433594 20.078125 53.148438 20.292969 L 52.488281 20.78125 C 52.269531 20.886719 52.027344 20.941406 51.777344 20.941406 C 51.777344 20.941406 48.101562 21.167969 44.550781 20.738281 C 44.550781 20.738281 42.769531 20.402344 42.769531 21.4375 C 42.769531 22.472656 44.550781 22.140625 44.550781 22.140625 C 48.101562 21.710938 51.777344 21.941406 51.777344 21.941406 Z M 51.777344 21.941406 " fill-opacity="1" fill-rule="nonzero"/></g><g fill="#ff5757" fill-opacity="1"><g transform="translate(12.4707, 32.550285)"><g><path d="M 2.207031 -1.203125 L 2.207031 -6.554688 L 0.847656 -6.554688 L 0.847656 0 L 4.261719 0 L 4.261719 -1.203125 Z M 2.207031 -1.203125 "/></g></g></g><g fill="#ff5757" fill-opacity="1"><g transform="translate(17.740045, 32.550285)"><g><path d="M 1.34375 -5.359375 C 1.746094 -5.359375 2.089844 -5.695312 2.089844 -6.113281 C 2.089844 -6.527344 1.746094 -6.863281 1.34375 -6.863281 C 0.929688 -6.863281 0.585938 -6.527344 0.585938 -6.113281 C 0.585938 -5.695312 0.929688 -5.359375 1.34375 -5.359375 Z M 0.675781 0 L 1.992188 0 L 1.992188 -4.660156 L 0.675781 -4.660156 Z M 0.675781 0 "/></g></g></g><g fill="#ff5757" fill-opacity="1"><g transform="translate(21.22329, 32.550285)"><g><path d="M 3.710938 -4.660156 L 2.542969 -1.472656 L 1.382812 -4.660156 L 0.0078125 -4.660156 L 1.972656 0 L 3.105469 0 L 5.09375 -4.660156 Z M 3.710938 -4.660156 "/></g></g></g><g fill="#ff5757" fill-opacity="1"><g transform="translate(27.140889, 32.550285)"><g><path d="M 5.0625 -2.398438 C 5.054688 -4.03125 4.074219 -4.761719 2.753906 -4.761719 C 1.316406 -4.761719 0.304688 -3.863281 0.304688 -2.332031 C 0.304688 -0.796875 1.289062 0.0898438 2.792969 0.0898438 C 3.839844 0.0898438 4.679688 -0.449219 4.988281 -1.390625 L 3.792969 -1.570312 C 3.613281 -1.15625 3.25 -0.9375 2.785156 -0.9375 C 2.164062 -0.9375 1.644531 -1.3125 1.59375 -2.085938 L 5.046875 -2.085938 Z M 2.761719 -3.835938 C 3.320312 -3.835938 3.738281 -3.503906 3.777344 -2.851562 L 1.613281 -2.851562 C 1.71875 -3.539062 2.140625 -3.835938 2.761719 -3.835938 Z M 2.761719 -3.835938 "/></g></g></g><g fill="#ffffff" fill-opacity="1"><g transform="translate(33.32545, 32.550285)"><g><path d="M 0.847656 0 L 3.21875 0 C 5.308594 0 6.34375 -1.316406 6.34375 -3.277344 C 6.34375 -5.238281 5.308594 -6.554688 3.21875 -6.554688 L 0.847656 -6.554688 Z M 2.207031 -1.203125 L 2.207031 -5.355469 L 3.152344 -5.355469 C 4.359375 -5.355469 4.910156 -4.601562 4.910156 -3.277344 C 4.910156 -1.953125 4.359375 -1.203125 3.152344 -1.203125 Z M 2.207031 -1.203125 "/></g></g></g><g fill="#ffffff" fill-opacity="1"><g transform="translate(40.911287, 32.550285)"><g><path d="M 1.34375 -5.359375 C 1.746094 -5.359375 2.089844 -5.695312 2.089844 -6.113281 C 2.089844 -6.527344 1.746094 -6.863281 1.34375 -6.863281 C 0.929688 -6.863281 0.585938 -6.527344 0.585938 -6.113281 C 0.585938 -5.695312 0.929688 -5.359375 1.34375 -5.359375 Z M 0.675781 0 L 1.992188 0 L 1.992188 -4.660156 L 0.675781 -4.660156 Z M 0.675781 0 "/></g></g></g><g fill="#ffffff" fill-opacity="1"><g transform="translate(44.394532, 32.550285)"><g><path d="M 3.429688 -4.753906 C 2.8125 -4.753906 2.308594 -4.53125 1.980469 -4.144531 L 1.980469 -4.660156 L 0.675781 -4.660156 L 0.675781 0 L 1.980469 0 L 1.980469 -2.570312 C 1.992188 -3.433594 2.480469 -3.707031 3.019531 -3.707031 C 3.46875 -3.707031 3.855469 -3.476562 3.855469 -2.855469 L 3.855469 0 L 5.164062 0 L 5.164062 -3.136719 C 5.164062 -4.171875 4.546875 -4.753906 3.429688 -4.753906 Z M 3.429688 -4.753906 "/></g></g></g><g fill="#ffffff" fill-opacity="1"><g transform="translate(50.964919, 32.550285)"><g><path d="M 3.429688 -4.753906 C 2.8125 -4.753906 2.308594 -4.53125 1.980469 -4.144531 L 1.980469 -4.660156 L 0.675781 -4.660156 L 0.675781 0 L 1.980469 0 L 1.980469 -2.570312 C 1.992188 -3.433594 2.480469 -3.707031 3.019531 -3.707031 C 3.46875 -3.707031 3.855469 -3.476562 3.855469 -2.855469 L 3.855469 0 L 5.164062 0 L 5.164062 -3.136719 C 5.164062 -4.171875 4.546875 -4.753906 3.429688 -4.753906 Z M 3.429688 -4.753906 "/></g></g></g><g fill="#ffffff" fill-opacity="1"><g transform="translate(57.535309, 32.550285)"><g><path d="M 5.0625 -2.398438 C 5.054688 -4.03125 4.074219 -4.761719 2.753906 -4.761719 C 1.316406 -4.761719 0.304688 -3.863281 0.304688 -2.332031 C 0.304688 -0.796875 1.289062 0.0898438 2.792969 0.0898438 C 3.839844 0.0898438 4.679688 -0.449219 4.988281 -1.390625 L 3.792969 -1.570312 C 3.613281 -1.15625 3.25 -0.9375 2.785156 -0.9375 C 2.164062 -0.9375 1.644531 -1.3125 1.59375 -2.085938 L 5.046875 -2.085938 Z M 2.761719 -3.835938 C 3.320312 -3.835938 3.738281 -3.503906 3.777344 -2.851562 L 1.613281 -2.851562 C 1.71875 -3.539062 2.140625 -3.835938 2.761719 -3.835938 Z M 2.761719 -3.835938 "/></g></g></g><g fill="#ffffff" fill-opacity="1"><g transform="translate(63.729438, 32.550285)"><g><path d="M 1.953125 -3.972656 L 1.914062 -4.660156 L 0.675781 -4.660156 L 0.675781 0 L 1.992188 0 L 1.992188 -2.273438 C 1.992188 -3.261719 2.460938 -3.550781 3.449219 -3.550781 L 3.449219 -4.714844 C 2.800781 -4.714844 2.207031 -4.367188 1.953125 -3.972656 Z M 1.953125 -3.972656 "/></g></g></g></svg>